<svg width="20px" height="18px" viewBox="0 0 20 18" version="1.1" xmlns="http://www.w3.org/2000/svg" xmlns:xlink="http://www.w3.org/1999/xlink">
    <!-- Generator: Sketch 47.1 (45422) - http://www.bohemiancoding.com/sketch -->
    <desc>Created with Sketch.</desc>
    <defs></defs>
    <g id="Symbols" stroke="none" stroke-width="1" fill="none" fill-rule="evenodd">
        <g id="Buttons/btn-outline-primary-btn-login-btn-sm" transform="translate(-14.000000, -9.000000)">
            <g id="btn-primary-btn-login-btn-sm">
                <g id="Branding/blockstack-bug-rev" transform="translate(7.000000, 1.000000)">
                    <path d="M12.3962773,14.0103437 C10.8613643,14.0103437 9.61707147,12.7700681 9.61707147,11.2401106 C9.61707147,9.71015316 10.8613643,8.46987758 12.3962773,8.46987758 C13.9311903,8.46987758 15.1754831,9.71015316 15.1754831,11.2401106 C15.1754831,12.7700681 13.9311903,14.0103437 12.3962773,14.0103437 Z M23.5131005,14.0103437 C21.9781875,14.0103437 20.7338947,12.7700681 20.7338947,11.2401106 C20.7338947,9.71015316 21.9781875,8.46987758 23.5131005,8.46987758 C25.0480135,8.46987758 26.2923063,9.71015316 26.2923063,11.2401106 C26.2923063,12.7700681 25.0480135,14.0103437 23.5131005,14.0103437 Z M23.5131005,25.0912759 C21.9781875,25.0912759 20.7338947,23.8510004 20.7338947,22.3210429 C20.7338947,20.7910854 21.9781875,19.5508098 23.5131005,19.5508098 C25.0480135,19.5508098 26.2923063,20.7910854 26.2923063,22.3210429 C26.2923063,23.8510004 25.0480135,25.0912759 23.5131005,25.0912759 Z M12.3962773,25.0912759 C10.8613643,25.0912759 9.61707147,23.8510004 9.61707147,22.3210429 C9.61707147,20.7910854 10.8613643,19.5508098 12.3962773,19.5508098 C13.9311903,19.5508098 15.1754831,20.7910854 15.1754831,22.3210429 C15.1754831,23.8510004 13.9311903,25.0912759 12.3962773,25.0912759 Z" id="4dots-electric-blue" fill="#2C96FF"></path>
                    <path d="M10.5487371,14.7469739 C9.01382407,14.7469739 7.76953125,13.5066983 7.76953125,11.9767408 C7.76953125,10.4467833 9.01382407,9.20650773 10.5487371,9.20650773 C12.08365,9.20650773 13.3279429,10.4467833 13.3279429,11.9767408 C13.3279429,13.5066983 12.08365,14.7469739 10.5487371,14.7469739 Z M21.6655603,14.7469739 C20.1306473,14.7469739 18.8863545,13.5066983 18.8863545,11.9767408 C18.8863545,10.4467833 20.1306473,9.20650773 21.6655603,9.20650773 C23.2004733,9.20650773 24.4447661,10.4467833 24.4447661,11.9767408 C24.4447661,13.5066983 23.2004733,14.7469739 21.6655603,14.7469739 Z M21.6655603,25.8279061 C20.1306473,25.8279061 18.8863545,24.5876305 18.8863545,23.057673 C18.8863545,21.5277156 20.1306473,20.28744 21.6655603,20.28744 C23.2004733,20.28744 24.4447661,21.5277156 24.4447661,23.057673 C24.4447661,24.5876305 23.2004733,25.8279061 21.6655603,25.8279061 Z M10.5487371,25.8279061 C9.01382407,25.8279061 7.76953125,24.5876305 7.76953125,23.057673 C7.76953125,21.5277156 9.01382407,20.28744 10.5487371,20.28744 C12.08365,20.28744 13.3279429,21.5277156 13.3279429,23.057673 C13.3279429,24.5876305 12.08365,25.8279061 10.5487371,25.8279061 Z" id="4dots-magenta" fill="#E91E63"></path>
                    <path d="M11.4725072,13.6420286 C9.93759418,13.6420286 8.69330136,12.401753 8.69330136,10.8717956 C8.69330136,9.34183809 9.93759418,8.1015625 11.4725072,8.1015625 C13.0074201,8.1015625 14.251713,9.34183809 14.251713,10.8717956 C14.251713,12.401753 13.0074201,13.6420286 11.4725072,13.6420286 Z M22.5893304,13.6420286 C21.0544174,13.6420286 19.8101246,12.401753 19.8101246,10.8717956 C19.8101246,9.34183809 21.0544174,8.1015625 22.5893304,8.1015625 C24.1242434,8.1015625 25.3685362,9.34183809 25.3685362,10.8717956 C25.3685362,12.401753 24.1242434,13.6420286 22.5893304,13.6420286 Z M22.5893304,24.7229609 C21.0544174,24.7229609 19.8101246,23.4826853 19.8101246,21.9527278 C19.8101246,20.4227703 21.0544174,19.1824947 22.5893304,19.1824947 C24.1242434,19.1824947 25.3685362,20.4227703 25.3685362,21.9527278 C25.3685362,23.4826853 24.1242434,24.7229609 22.5893304,24.7229609 Z M11.4725072,24.7229609 C9.93759418,24.7229609 8.69330136,23.4826853 8.69330136,21.9527278 C8.69330136,20.4227703 9.93759418,19.1824947 11.4725072,19.1824947 C13.0074201,19.1824947 14.251713,20.4227703 14.251713,21.9527278 C14.251713,23.4826853 13.0074201,24.7229609 11.4725072,24.7229609 Z" id="4dots-rev" fill="#FFFFFF"></path>
                </g>
            </g>
        </g>
    </g>
</svg>
